<svg
  version="1.0" 
  xmlns="http://www.w3.org/2000/svg"
  width="22.000000pt" 
  height="22.000000pt" 
  margin="0 0 0 0"
  viewBox="0 0 50.000000 50.000000"
  preserveAspectRatio="xMidYMid meet"
>
<g transform="translate(0.000000,50.000000) scale(0.100000,-0.100000)"
fill="#ffffff" stroke="none">
<path d="M237 493 c-8 -12 4 -63 14 -63 5 0 10 9 11 20 0 11 1 25 2 32 1 14
-20 22 -27 11z"/>
<path d="M70 416 c0 -15 44 -48 53 -39 9 9 -24 53 -39 53 -8 0 -14 -6 -14 -14z"/>
<path d="M387 406 c-9 -13 -13 -26 -10 -29 9 -9 53 24 53 39 0 22 -26 16 -43
-10z"/>
<path d="M185 406 c-42 -18 -93 -79 -101 -121 -11 -60 4 -106 50 -151 46 -46
91 -61 153 -49 50 9 119 78 128 128 11 55 -2 103 -38 144 -52 60 -125 78 -192
49z m135 -26 c45 -23 80 -80 80 -130 0 -76 -74 -150 -150 -150 -50 0 -107 35
-130 80 -25 50 -25 90 0 140 37 73 124 99 200 60z"/>
<path d="M182 370 c-70 -43 -92 -128 -49 -191 57 -86 178 -88 233 -4 77 118
-64 268 -184 195z m58 -20 c0 -11 5 -20 10 -20 6 0 10 9 10 21 0 16 4 19 23
14 33 -10 42 -22 29 -38 -15 -18 -3 -30 15 -15 16 13 28 4 38 -29 5 -19 2 -23
-14 -23 -12 0 -21 -4 -21 -10 0 -5 9 -10 21 -10 16 0 19 -4 14 -22 -10 -34
-22 -43 -38 -30 -18 15 -30 3 -15 -15 13 -16 4 -28 -29 -38 -19 -5 -23 -2 -23
14 0 12 -4 21 -10 21 -5 0 -10 -9 -10 -21 0 -16 -4 -19 -22 -14 -34 10 -43 22
-30 38 15 18 3 30 -15 15 -16 -13 -28 -4 -38 30 -5 18 -2 22 14 22 12 0 21 5
21 10 0 6 -9 10 -21 10 -16 0 -19 4 -14 23 11 33 22 42 39 28 9 -7 16 -8 20
-2 4 5 2 12 -4 16 -17 10 -11 25 13 35 33 13 37 12 37 -10z"/>
<path d="M202 297 c-28 -30 -28 -68 1 -95 30 -28 68 -28 95 1 28 30 28 68 -1
95 -30 28 -68 28 -95 -1z m82 -13 c31 -30 9 -84 -34 -84 -24 0 -50 26 -50 50
0 10 7 26 16 34 8 9 24 16 34 16 10 0 26 -7 34 -16z"/>
<path d="M5 260 c-11 -18 7 -29 38 -23 28 6 38 23 13 23 -8 0 -21 3 -29 6 -8
3 -18 0 -22 -6z"/>
<path d="M453 263 c-13 -2 -23 -8 -23 -13 0 -11 53 -20 64 -10 9 9 0 31 -12
29 -4 -1 -17 -4 -29 -6z"/>
<path d="M93 113 c-25 -17 -31 -43 -9 -43 16 0 50 47 38 53 -4 3 -17 -2 -29
-10z"/>
<path d="M377 123 c-9 -9 24 -53 39 -53 8 0 14 6 14 14 0 15 -44 48 -53 39z"/>
<path d="M237 43 c-6 -31 7 -53 22 -38 11 11 3 65 -9 65 -4 0 -10 -12 -13 -27z"/>
</g>
</svg>
